<svg width="21" height="24" viewBox="0 0 21 24" fill="none" xmlns="http://www.w3.org/2000/svg">
<path id="Vector" d="M3.68371 13.0389C3.68259 13.0316 3.68158 13.0242 3.68067 13.0167L2.39957 3.69512C2.27299 2.77415 1.61593 2.09913 0.84602 2.09913H0.524992C0.235047 2.09913 0 1.81409 0 1.46247C0 1.11085 0.235047 0.825806 0.524992 0.825806H0.84602C2.09741 0.825806 3.16993 1.89577 3.41797 3.37246H20.4747C20.8235 3.37246 21.0753 3.77731 20.9795 4.18402L18.8795 13.0973C18.8151 13.3706 18.6091 13.5591 18.3747 13.5591H4.81967L4.95032 14.5097C5.07689 15.4307 5.73396 16.1057 6.50387 16.1057H18.3747C18.6647 16.1057 18.8997 16.3908 18.8997 16.7424C18.8997 17.094 18.6647 17.379 18.3747 17.379H6.50387C5.22068 17.379 4.12558 16.254 3.91462 14.7191L3.68371 13.0389ZM3.59469 4.64578L4.64467 12.2857H17.9787L19.7787 4.64578H3.59469ZM6.2999 23.7457C5.14012 23.7457 4.19994 22.6055 4.19994 21.199C4.19994 19.7925 5.14012 18.6524 6.2999 18.6524C7.45968 18.6524 8.39987 19.7925 8.39987 21.199C8.39987 22.6055 7.45968 23.7457 6.2999 23.7457ZM6.2999 22.4723C6.87979 22.4723 7.34989 21.9023 7.34989 21.199C7.34989 20.4958 6.87979 19.9257 6.2999 19.9257C5.72001 19.9257 5.24992 20.4958 5.24992 21.199C5.24992 21.9023 5.72001 22.4723 6.2999 22.4723ZM15.7498 23.7457C14.59 23.7457 13.6498 22.6055 13.6498 21.199C13.6498 19.7925 14.59 18.6524 15.7498 18.6524C16.9095 18.6524 17.8497 19.7925 17.8497 21.199C17.8497 22.6055 16.9095 23.7457 15.7498 23.7457ZM15.7498 22.4723C16.3296 22.4723 16.7997 21.9023 16.7997 21.199C16.7997 20.4958 16.3296 19.9257 15.7498 19.9257C15.1699 19.9257 14.6998 20.4958 14.6998 21.199C14.6998 21.9023 15.1699 22.4723 15.7498 22.4723Z" fill="black" fill-opacity="0.8"/>
</svg>
