<svg width="33" height="33" viewBox="0 0 33 33" fill="none" xmlns="http://www.w3.org/2000/svg">
<g id="_2744492862240">
<path id="Vector" d="M11.7312 8.60994H20.3376C21.1969 8.60994 21.9754 8.96065 22.5401 9.5288C23.1082 10.0934 23.4589 10.872 23.4589 11.7313V20.3377C23.4589 21.1969 23.1082 21.9755 22.5401 22.5402C21.9754 23.1083 21.1969 23.459 20.3376 23.459H11.7312C10.8719 23.459 10.0934 23.1083 9.52872 22.5402C8.96057 21.9755 8.60986 21.1969 8.60986 20.3377V11.7313C8.60986 10.872 8.96057 10.0934 9.52872 9.5288C10.0934 8.96065 10.8719 8.60994 11.7312 8.60994ZM20.5726 11.0439C20.7409 11.0439 20.8812 11.1842 20.8812 11.3525C20.8812 11.5243 20.7409 11.6611 20.5726 11.6611C20.4007 11.6611 20.264 11.5243 20.264 11.3525C20.264 11.1842 20.4007 11.0439 20.5726 11.0439ZM16.0344 11.8891C18.3245 11.8891 20.1798 13.7443 20.1798 16.0345C20.1798 18.3246 18.3245 20.1799 16.0344 20.1799C13.7443 20.1799 11.889 18.3246 11.889 16.0345C11.889 13.7443 13.7443 11.8891 16.0344 11.8891ZM19.5871 16.0345C19.5871 14.074 17.9949 12.4818 16.0344 12.4818C14.0739 12.4818 12.4817 14.074 12.4817 16.0345C12.4817 17.995 14.0739 19.5872 16.0344 19.5872C17.9949 19.5872 19.5871 17.995 19.5871 16.0345ZM20.3376 9.20615H11.7312C11.0368 9.20615 10.4055 9.49022 9.94607 9.94615C9.49015 10.4056 9.20607 11.0369 9.20607 11.7313V20.3377C9.20607 21.0321 9.49015 21.6634 9.94607 22.1228C10.4055 22.5787 11.0368 22.8628 11.7312 22.8628H20.3376C21.032 22.8628 21.6633 22.5787 22.1227 22.1228C22.5787 21.6634 22.8627 21.0321 22.8627 20.3377V11.7313C22.8627 11.0369 22.5787 10.4056 22.1227 9.94615C21.6633 9.49022 21.032 9.20615 20.3376 9.20615Z" fill="white" fill-opacity="0.7"/>
</g>
</svg>
