<svg width="33" height="33" viewBox="0 0 33 33" fill="none" xmlns="http://www.w3.org/2000/svg">
<g id="_2744503357600">
<path id="Vector" d="M14.6106 14.4317H13.0043V16.2134L14.6106 16.2169C14.7719 16.2169 14.9052 16.3466 14.9052 16.5115L14.9087 22.8663H16.6868V16.5115C16.6868 16.3466 16.8201 16.2134 16.9849 16.2134H19.0646V14.4317H16.9849C16.8201 14.4317 16.6868 14.2985 16.6868 14.1336C16.6868 13.3691 16.6868 12.8115 16.7359 12.3801C16.7885 11.8996 16.9042 11.5805 17.1427 11.3595C17.1497 11.356 17.1567 11.349 17.1637 11.342C17.3707 11.1596 17.6442 11.0684 18.023 11.0263C18.3036 10.9948 18.6437 10.9878 19.0646 10.9878V9.20616C18.0335 9.20616 17.2409 9.21318 16.6482 9.28332C16.052 9.35697 15.6627 9.49375 15.4207 9.76029C15.1717 10.0373 15.0455 10.4722 14.9788 11.1421C14.9052 11.854 14.9052 12.8325 14.9052 14.1336C14.9052 14.2985 14.7719 14.4317 14.6106 14.4317ZM12.7097 13.8355H14.3125C14.3125 12.6747 14.3195 11.7839 14.3896 11.086C14.4703 10.2864 14.6386 9.74275 14.9823 9.36398C15.333 8.97469 15.8346 8.78531 16.5781 8.69413C17.2655 8.60995 18.1633 8.60995 19.3592 8.60995C19.524 8.60995 19.6573 8.74322 19.6573 8.90806V11.2824C19.6573 11.4472 19.524 11.5805 19.3592 11.5805C18.8121 11.5805 18.3912 11.5805 18.0861 11.6155C17.8336 11.6436 17.6618 11.6927 17.5565 11.7839L17.546 11.7944C17.4233 11.9066 17.3601 12.11 17.3251 12.4467C17.2865 12.7799 17.283 13.2358 17.283 13.8355H19.3592C19.524 13.8355 19.6573 13.9688 19.6573 14.1336V16.5115C19.6573 16.6728 19.524 16.8061 19.3592 16.8061H17.283V23.1609H17.2795C17.2795 23.3258 17.1462 23.459 16.9849 23.459L14.6106 23.4555C14.4492 23.4555 14.316 23.3258 14.316 23.1609L14.3125 16.8061H12.7097C12.5449 16.8061 12.4116 16.6728 12.4116 16.5115V14.1336C12.4116 13.9688 12.5449 13.8355 12.7097 13.8355Z" fill="white" fill-opacity="0.7"/>
</g>
</svg>
